<svg width="24" height="24" viewBox="0 0 24 24" fill="none" xmlns="http://www.w3.org/2000/svg">
<path d="M0 5C0 2.23858 2.23858 0 5 0H19C21.7614 0 24 2.23858 24 5V19C24 21.7614 21.7614 24 19 24H5C2.23858 24 0 21.7614 0 19V5Z" fill="#D8D8D8"/>
<path fill-rule="evenodd" clip-rule="evenodd" d="M12 12.8333C13.9967 12.8333 15.8125 13.4117 17.1483 14.2258C17.815 14.6342 18.385 15.1133 18.7967 15.6342C19.2017 16.1475 19.5 16.7608 19.5 17.4167C19.5 18.1208 19.1575 18.6758 18.6642 19.0717C18.1975 19.4467 17.5817 19.695 16.9275 19.8683C15.6125 20.2158 13.8575 20.3333 12 20.3333C10.1425 20.3333 8.3875 20.2167 7.0725 19.8683C6.41833 19.695 5.8025 19.4467 5.33583 19.0717C4.84167 18.675 4.5 18.1208 4.5 17.4167C4.5 16.7608 4.79833 16.1475 5.20333 15.6342C5.615 15.1133 6.18417 14.6342 6.85167 14.2258C8.1875 13.4117 10.0042 12.8333 12 12.8333ZM12 14.5C10.3142 14.5 8.7975 14.9917 7.72 15.6492C7.18083 15.9775 6.77417 16.3342 6.51167 16.6675C6.24167 17.0092 6.16667 17.2675 6.16667 17.4167C6.16667 17.5183 6.1975 17.6258 6.37917 17.7717C6.58667 17.9383 6.9475 18.1108 7.49917 18.2567C8.5975 18.5483 10.1758 18.6667 12 18.6667C13.825 18.6667 15.4025 18.5475 16.5 18.2567C17.0525 18.1108 17.4133 17.9383 17.6208 17.7717C17.8025 17.6258 17.8333 17.5183 17.8333 17.4167C17.8333 17.2667 17.7583 17.0092 17.4892 16.6675C17.2258 16.3342 16.8192 15.9775 16.28 15.6492C15.2025 14.9908 13.6858 14.5 12 14.5ZM12 3.66667C13.1051 3.66667 14.1649 4.10565 14.9463 4.88705C15.7277 5.66846 16.1667 6.72826 16.1667 7.83333C16.1667 8.9384 15.7277 9.99821 14.9463 10.7796C14.1649 11.561 13.1051 12 12 12C10.8949 12 9.83512 11.561 9.05372 10.7796C8.27232 9.99821 7.83333 8.9384 7.83333 7.83333C7.83333 6.72826 8.27232 5.66846 9.05372 4.88705C9.83512 4.10565 10.8949 3.66667 12 3.66667ZM12 5.33333C11.6717 5.33333 11.3466 5.398 11.0433 5.52363C10.74 5.64927 10.4644 5.83342 10.2322 6.06557C10.0001 6.29771 9.81594 6.57331 9.6903 6.87662C9.56466 7.17994 9.5 7.50503 9.5 7.83333C9.5 8.16164 9.56466 8.48673 9.6903 8.79004C9.81594 9.09336 10.0001 9.36895 10.2322 9.6011C10.4644 9.83325 10.74 10.0174 11.0433 10.143C11.3466 10.2687 11.6717 10.3333 12 10.3333C12.663 10.3333 13.2989 10.0699 13.7678 9.6011C14.2366 9.13226 14.5 8.49637 14.5 7.83333C14.5 7.17029 14.2366 6.53441 13.7678 6.06557C13.2989 5.59673 12.663 5.33333 12 5.33333Z" fill="#F5F5F5"/>
</svg>
