<svg width="18" height="18" viewBox="0 0 18 18" fill="none" xmlns="http://www.w3.org/2000/svg">
<path d="M16.5508 17.6159C16.4667 17.6872 16.3636 17.7323 16.2542 17.7455C16.1448 17.7587 16.0339 17.7394 15.9354 17.6902L1.31038 10.3777C1.21707 10.3309 1.13861 10.2591 1.08378 10.1703C1.02896 10.0815 0.999916 9.97917 0.999916 9.8748C0.999916 9.77043 1.02896 9.66812 1.08378 9.57931C1.13861 9.4905 1.21707 9.41869 1.31038 9.37193L15.9354 2.05943C16.0339 2.01004 16.1447 1.99067 16.2541 2.00372C16.3636 2.01677 16.4667 2.06168 16.5508 2.13286C16.635 2.20403 16.6963 2.29835 16.7273 2.40409C16.7583 2.50984 16.7575 2.62236 16.7251 2.72768L14.5258 9.8748L16.7251 17.0219C16.7573 17.1271 16.758 17.2395 16.727 17.3451C16.696 17.4507 16.6347 17.5448 16.5508 17.6159ZM13.5223 9.3123L15.2626 3.65355L2.82013 9.8748L15.2626 16.0961L13.5223 10.4373L7.18738 10.4373C7.03819 10.4373 6.89512 10.378 6.78963 10.2725C6.68414 10.1671 6.62488 10.024 6.62488 9.8748C6.62488 9.72562 6.68414 9.58254 6.78963 9.47705C6.89512 9.37156 7.03819 9.3123 7.18738 9.3123L13.5211 9.3123L13.5223 9.3123Z" fill="#636363"/>
</svg>
