<svg width="34" height="33" viewBox="0 0 34 33" fill="none" xmlns="http://www.w3.org/2000/svg">
<path d="M31.1163 32.1895L1.01627 17.7938C0.712034 17.6485 0.45514 17.4201 0.2753 17.1349C0.0954565 16.8497 2.04587e-05 16.5195 2.04882e-05 16.1824C2.05177e-05 15.8452 0.0954566 15.515 0.275301 15.2298C0.455141 14.9446 0.712034 14.7162 1.01627 14.5709L31.1163 0.175216C31.4248 0.0274198 31.7694 -0.0286218 32.1089 0.0137633C32.4484 0.0561446 32.7686 0.195164 33.0313 0.414284C33.2941 0.633402 33.4884 0.923395 33.5911 1.24976C33.6937 1.57612 33.7005 1.92512 33.6106 2.25522L30.5991 13.2952C30.5623 13.4305 30.4864 13.552 30.381 13.6444C30.2755 13.7369 30.1452 13.7963 30.0063 13.8152L15.4206 15.7966C15.3596 15.8053 15.3019 15.8296 15.2531 15.8671C15.2043 15.9047 15.166 15.9542 15.142 16.0109L15.1163 16.0995C15.105 16.1793 15.121 16.2605 15.1617 16.33C15.2025 16.3995 15.2655 16.4532 15.3406 16.4824L15.4191 16.5038L29.9906 18.4852C30.1293 18.5044 30.2593 18.5639 30.3644 18.6563C30.4696 18.7488 30.5452 18.8701 30.582 19.0052L33.6106 30.1081C33.7009 30.4383 33.6944 30.7875 33.5918 31.1141C33.4893 31.4407 33.2951 31.7309 33.0322 31.9503C32.7694 32.1696 32.4491 32.3088 32.1094 32.3512C31.7697 32.3936 31.425 32.3375 31.1163 32.1895Z" fill="url(#paint0_linear_176_3676)"/>
<defs>
<linearGradient id="paint0_linear_176_3676" x1="12.6433" y1="7.21401" x2="20.4837" y2="34.6855" gradientUnits="userSpaceOnUse">
<stop stop-color="#F5F5F5"/>
<stop offset="1" stop-color="#BEBEBE"/>
</linearGradient>
</defs>
</svg>
