<svg width="42" height="44" viewBox="0 0 42 44" fill="none" xmlns="http://www.w3.org/2000/svg">
<g clip-path="url(#clip0_578_10546)" filter="url(#filter0_d_578_10546)">
<path d="M24.0452 2.25158C13.689 0.546373 3.93037 7.67624 2.24814 18.1772C0.566427 28.6781 7.59806 38.5731 17.9543 40.2783C28.3106 41.9835 38.0692 34.8536 39.7514 24.3527C41.4331 13.8522 34.4015 3.95732 24.0452 2.25158ZM27.4361 23.2718C26.9072 25.0148 25.7409 26.4451 24.1518 27.2987C22.8416 28.0023 21.3731 28.2447 19.9341 28.0081C19.6277 27.9577 19.323 27.8853 19.0208 27.7914C17.3018 27.2552 15.8912 26.0726 15.0493 24.4613C14.225 22.8836 14.0429 21.0713 14.535 19.3572C14.535 19.3561 14.535 19.3551 14.5355 19.354L14.5417 19.3315C14.5479 19.3073 14.5547 19.2837 14.5619 19.2596V19.258C14.5697 19.2339 14.5774 19.2103 14.5857 19.1867L14.5935 19.1641C15.1352 17.4647 16.2907 16.068 17.8477 15.2316C21.1289 13.4698 25.2121 14.7421 26.9497 18.0696C27.7916 19.6814 27.9639 21.5288 27.4356 23.2718H27.4361Z" fill="white"/>
<path d="M14.5378 19.3475C14.5565 19.284 14.5735 19.2268 14.5917 19.1701C14.5922 19.168 14.5932 19.1659 14.5937 19.1644L14.586 19.1869C14.5777 19.2105 14.5699 19.2341 14.5627 19.2583V19.2599C14.5549 19.2835 14.5487 19.3076 14.542 19.3317L14.5358 19.3543C14.5358 19.3543 14.5363 19.3522 14.5368 19.3512C14.5368 19.3501 14.5373 19.3491 14.5378 19.348V19.3475Z" fill="#CECECE"/>
<path d="M24.7368 19.6728C23.3774 19.2478 21.9218 20.0233 21.4939 21.4C21.9218 20.0238 23.3769 19.2488 24.7368 19.6728Z" fill="#CECECE"/>
<path d="M21.4939 21.3995L21.482 21.4383L21.4825 21.4378L21.4939 21.3995Z" fill="#CECECE"/>
<path d="M17.5789 23.9804C17.5054 23.9709 17.4324 23.9615 17.3589 23.9473C17.3874 23.9526 17.4159 23.9599 17.4443 23.9646C17.4893 23.972 17.5338 23.9746 17.5783 23.9804H17.5789Z" fill="#CECECE"/>
<path d="M14.5358 19.3543C14.5358 19.3543 14.5358 19.3568 14.5352 19.3581C14.5352 19.3568 14.5358 19.3555 14.5365 19.3543H14.5358Z" fill="#CECECE"/>
<path d="M17.848 15.2319C16.291 16.0682 15.1355 17.4649 14.5938 19.1643L15.5655 19.4896C15.5505 19.5374 15.536 19.5857 15.5221 19.6339C15.536 19.5857 15.5505 19.5379 15.566 19.4891C16.025 18.0452 17.0056 16.8589 18.3277 16.149C19.4686 15.5362 20.7229 15.3562 21.9089 15.5514C23.615 15.8321 25.1772 16.8909 26.0465 18.5552C26.2069 18.8621 26.3383 19.1785 26.4413 19.5022C26.3989 19.4624 26.3554 19.4235 26.3109 19.3858C27.3846 20.3081 27.8757 21.8239 27.4369 23.2715C27.9652 21.528 27.7929 19.6806 26.951 18.0693C25.2129 14.7423 21.1297 13.4695 17.849 15.2313L17.848 15.2319Z" fill="#CECECE"/>
<path d="M20.5191 21.0836C21.005 19.5343 22.4197 18.5358 23.9441 18.5206C22.4166 18.5353 20.9998 19.5363 20.5186 21.0836H20.5191Z" fill="#CECECE"/>
<path d="M14.537 19.3506C14.537 19.3506 14.5364 19.3531 14.5358 19.3544C14.5358 19.3544 14.5364 19.3519 14.537 19.3506Z" fill="#CECECE"/>
<path d="M14.5378 19.3475L15.522 19.6324V19.6334C15.536 19.5851 15.5505 19.5374 15.5655 19.4891L14.5937 19.1638C14.5937 19.1638 14.5922 19.168 14.5917 19.1696C14.5735 19.2263 14.5565 19.2834 14.5378 19.3469V19.3475Z" fill="#CECECE"/>
<path d="M26.4578 22.9672C26.879 21.5779 26.107 20.0998 24.7368 19.6728C26.107 20.1004 26.879 21.5779 26.4578 22.9672Z" fill="#CECECE"/>
<path d="M21.4826 21.4383V21.439L21.4794 21.4484L21.4826 21.4383Z" fill="#CECECE"/>
<path d="M20.5165 21.0925L20.5046 21.1308L20.5134 21.102L20.5165 21.092V21.0925Z" fill="#CECECE"/>
<path d="M23.9446 18.5206C24.3063 18.5169 24.6742 18.5678 25.038 18.6811C24.6747 18.5678 24.3068 18.5174 23.9446 18.5206Z" fill="#CECECE"/>
<path d="M23.6724 26.3818C22.3244 27.1059 20.7788 27.2544 19.3217 26.7995C17.8635 26.3451 16.6677 25.3419 15.9541 23.9751C15.7963 23.6729 15.6659 23.3607 15.564 23.0412C15.5841 23.0601 15.6074 23.0764 15.6286 23.0947C14.6155 22.1949 14.1498 20.7662 14.5358 19.3569C14.0437 21.071 14.2258 22.8833 15.0501 24.461C15.892 26.0728 17.3026 27.2554 19.0216 27.7911C19.3232 27.885 19.6285 27.9575 19.9349 28.0078C21.3734 28.2445 22.8419 28.002 24.1526 27.2985C25.7417 26.4448 26.9085 25.0145 27.4369 23.2715L26.4584 22.9667C26.0102 24.4447 25.0209 25.6578 23.6729 26.3813L23.6724 26.3818Z" fill="#CECECE"/>
<path d="M16.796 22.6624C15.7373 22.0926 15.1877 20.8512 15.5215 19.6334C15.521 19.6355 15.5205 19.6371 15.5199 19.6392C15.1872 20.8512 15.7373 22.0921 16.796 22.6619V22.6624Z" fill="#CECECE"/>
<path d="M21.4789 21.4467C21.468 21.4808 21.4541 21.5133 21.4427 21.5469C21.4541 21.5133 21.4686 21.4813 21.4794 21.4472L21.4789 21.4467Z" fill="#CECECE"/>
<path d="M14.5381 19.3475C14.5381 19.3475 14.5374 19.35 14.5368 19.3513C14.5368 19.35 14.5374 19.3487 14.5381 19.3475Z" fill="#CECECE"/>
<path d="M15.6281 23.0953C15.6845 23.1451 15.7424 23.1934 15.8019 23.2401C15.8423 23.2716 15.8821 23.3025 15.9241 23.3324C15.9872 23.3775 16.0529 23.42 16.1197 23.4615C16.1616 23.4872 16.2024 23.514 16.2454 23.5381C16.3204 23.5806 16.3986 23.6189 16.4777 23.6561C16.516 23.6745 16.5528 23.6944 16.5916 23.7112C16.7111 23.7632 16.8337 23.8099 16.961 23.8498C17.0671 23.8828 17.1737 23.9085 17.2803 23.9316C17.3067 23.9374 17.3331 23.9426 17.3595 23.9473C17.4329 23.961 17.5059 23.971 17.5794 23.9804C17.6265 23.9862 17.6736 23.993 17.7206 23.9972C17.79 24.003 17.8583 24.0051 17.9271 24.0072C17.9726 24.0082 18.0177 24.0108 18.0632 24.0103C18.1346 24.0093 18.2055 24.004 18.2764 23.9988C18.3183 23.9956 18.3607 23.9946 18.4026 23.9904C18.4829 23.9814 18.5615 23.9678 18.6407 23.9542C18.6852 23.9463 18.7297 23.9389 18.7737 23.9295C18.8673 23.909 18.9599 23.8865 19.051 23.8587C19.1059 23.8424 19.1586 23.8214 19.2125 23.8025C19.2627 23.7847 19.3134 23.7684 19.3625 23.7485C19.4205 23.7249 19.4769 23.6981 19.5333 23.6714C19.5762 23.6514 19.6192 23.6325 19.6611 23.611C19.7196 23.5811 19.776 23.5481 19.8329 23.515C19.8707 23.493 19.9089 23.4715 19.9462 23.4478C20.0036 23.4116 20.059 23.3728 20.1144 23.3329C20.148 23.3088 20.1822 23.2847 20.2148 23.2595C20.2701 23.217 20.3239 23.1724 20.3772 23.1267C20.4072 23.101 20.4367 23.0743 20.4662 23.0475C20.519 22.9987 20.5702 22.9489 20.6204 22.8969C20.6473 22.8691 20.6732 22.8408 20.6991 22.8119C20.7482 22.7579 20.7964 22.7023 20.8424 22.6451C20.8662 22.6157 20.8885 22.5847 20.9112 22.5543C20.9557 22.495 20.9997 22.4352 21.0406 22.3728C21.0618 22.3402 21.0815 22.3061 21.1022 22.2731C21.141 22.2101 21.1798 22.1472 21.2145 22.0811C21.2352 22.0422 21.2533 22.0013 21.2724 21.9614C21.303 21.8985 21.3345 21.836 21.3619 21.771C21.3925 21.6986 21.4178 21.623 21.4437 21.548C21.4551 21.5144 21.4691 21.4819 21.4799 21.4478L20.504 21.1366L20.5144 21.1031L20.5056 21.1319C20.0776 22.5081 18.6231 23.2826 17.2627 22.8592C17.1778 22.8329 17.0956 22.8025 17.0154 22.7684C16.9403 22.7364 16.8674 22.7018 16.797 22.6635C15.7383 22.0936 15.1877 20.8523 15.521 19.6408L14.5373 19.3553C14.5373 19.3553 14.5368 19.3574 14.5363 19.3585C14.1508 20.7678 14.6165 22.197 15.6291 23.0963L15.6281 23.0953Z" fill="#CECECE"/>
<path d="M26.3103 19.3863C26.3057 19.3826 26.3015 19.3784 26.2969 19.3742C26.2157 19.3055 26.1308 19.241 26.0433 19.179C26.0294 19.1691 26.0154 19.1591 26.0014 19.1491C25.916 19.0904 25.8281 19.0358 25.737 18.9844C25.7199 18.9749 25.7029 18.9655 25.6858 18.956C25.5932 18.9057 25.4985 18.8585 25.4007 18.816C25.3862 18.8097 25.3717 18.8044 25.3572 18.7981C25.2532 18.7546 25.1471 18.7142 25.0374 18.6801C24.6742 18.5673 24.3063 18.5164 23.944 18.5195C22.4196 18.5347 21.0049 19.5332 20.519 21.0826L21.497 21.3858L21.4815 21.4378L21.4934 21.399C21.9213 20.0222 23.3769 19.2467 24.7363 19.6717C26.1065 20.0988 26.8785 21.5768 26.4573 22.9662L27.4358 23.271C27.8746 21.8234 27.3835 20.3071 26.3098 19.3852L26.3103 19.3863Z" fill="#CECECE"/>
<path d="M15.5216 19.6339C15.5216 19.6339 15.5205 19.6378 15.52 19.64C15.5205 19.6378 15.521 19.6361 15.5216 19.6339Z" fill="#CECECE"/>
<path d="M14.5378 19.3475C14.5378 19.3475 14.5373 19.3496 14.5368 19.3506C14.5368 19.3517 14.5363 19.3527 14.5358 19.3538L15.5194 19.6392C15.5194 19.6392 15.5205 19.6355 15.521 19.6334V19.6324L14.5368 19.3475H14.5378Z" fill="#CECECE"/>
<path d="M20.5165 21.0937C20.5177 21.0905 20.519 21.0874 20.5202 21.0836L20.5171 21.0937H20.5165Z" fill="#CECECE"/>
<path d="M20.5196 21.0836L20.5165 21.0937L20.5196 21.0836Z" fill="#CECECE"/>
<path d="M21.4796 21.4483L21.4827 21.4388C21.4814 21.442 21.4802 21.4451 21.4789 21.4483H21.4796Z" fill="#CECECE"/>
<path d="M20.5164 21.092L20.5133 21.102L20.503 21.1356L21.4789 21.4467C21.4799 21.4441 21.481 21.4414 21.482 21.4388L21.4975 21.3869L20.5195 21.0836C20.5185 21.0862 20.5175 21.0889 20.5164 21.092Z" fill="#CECECE"/>
<path d="M20.5168 21.092L20.5134 21.1029L20.5168 21.092Z" fill="#CECECE"/>
<path d="M24.0455 2.25182C20.0932 1.6007 16.2283 2.23818 12.8654 3.85734L13.8393 5.93665C16.7996 4.51162 20.2018 3.95074 23.6812 4.52369L24.0449 2.2513L24.0455 2.25182Z" fill="#CECECE"/>
<path d="M36.4125 10.0045C34.0715 6.71054 30.8944 4.38989 27.3876 3.12436L26.6265 5.29286C29.7136 6.4078 32.5104 8.45038 34.5709 11.3503L36.4125 10.0045Z" fill="#CECECE"/>
<path d="M39.7516 24.3534C40.3938 20.3459 39.7651 16.4271 38.1682 13.0172L36.1176 14.0047C37.5229 17.0064 38.0761 20.4561 37.511 23.9841L39.7521 24.3529L39.7516 24.3534Z" fill="#CECECE"/>
<path d="M32.1058 36.8933C35.3543 34.5196 37.643 31.2981 38.8911 27.7423L36.7525 26.9705C35.6529 30.1008 33.6385 32.9367 30.7785 35.0259L32.1058 36.8933Z" fill="#CECECE"/>
<path d="M17.9545 40.279C21.9068 40.9302 25.7717 40.2927 29.1346 38.6735L28.1607 36.5942C25.2004 38.0192 21.7982 38.5801 18.3188 38.0072L17.955 40.2796L17.9545 40.279Z" fill="#CECECE"/>
<path d="M5.58746 32.5263C7.92841 35.8203 11.1056 38.1409 14.6123 39.4065L15.3735 37.238C12.2864 36.123 9.48956 34.0804 7.42907 31.1805L5.58746 32.5263Z" fill="#CECECE"/>
<path d="M2.24835 18.1774C1.6062 22.1849 2.2349 26.1038 3.83175 29.5137L5.88241 28.5262C4.47701 25.5245 3.92386 22.0747 4.48891 18.5468L2.24783 18.178L2.24835 18.1774Z" fill="#CECECE"/>
<path d="M9.89418 5.63757C6.64563 8.01122 4.35695 11.2328 3.10834 14.7885L5.24696 15.5603C6.34654 12.4301 8.36098 9.59418 11.2209 7.50491L9.89366 5.63757H9.89418Z" fill="#CECECE"/>
<path d="M15.5531 29.9533C16.4037 28.6311 15.4754 26.055 13.4538 24.271C11.5376 22.5805 8.60939 23.4704 7.56207 25.333L15.5531 29.9533Z" fill="#CECECE"/>
<path d="M15.6022 29.8662C14.913 31.2818 12.2538 31.7839 9.71052 30.9282C7.29972 30.117 6.56391 27.1085 7.61123 25.2459L15.6022 29.8662Z" fill="#CECECE"/>
<path d="M35.5338 40.4977L9.37095 25.3723C9.11673 25.2253 8.79314 25.3151 8.6482 25.5729L8.36832 26.0706C8.22337 26.3284 8.31196 26.6565 8.56618 26.8035L34.729 41.9289C34.9833 42.0759 35.3069 41.986 35.4518 41.7283L35.7317 41.2305C35.8766 40.9728 35.788 40.6446 35.5338 40.4977Z" fill="#CECECE"/>
</g>
<defs>
<filter id="filter0_d_578_10546" x="0" y="-3.05176e-05" width="42" height="44" filterUnits="userSpaceOnUse" color-interpolation-filters="sRGB">
<feFlood flood-opacity="0" result="BackgroundImageFix"/>
<feColorMatrix in="SourceAlpha" type="matrix" values="0 0 0 0 0 0 0 0 0 0 0 0 0 0 0 0 0 0 127 0" result="hardAlpha"/>
<feOffset/>
<feGaussianBlur stdDeviation="1"/>
<feComposite in2="hardAlpha" operator="out"/>
<feColorMatrix type="matrix" values="0 0 0 0 0 0 0 0 0 0 0 0 0 0 0 0 0 0 0.2 0"/>
<feBlend mode="normal" in2="BackgroundImageFix" result="effect1_dropShadow_578_10546"/>
<feBlend mode="normal" in="SourceGraphic" in2="effect1_dropShadow_578_10546" result="shape"/>
</filter>
<clipPath id="clip0_578_10546">
<rect width="38" height="40" fill="white" transform="translate(2 1.99997)"/>
</clipPath>
</defs>
</svg>
