<svg width="28" height="28" viewBox="0 0 28 28" fill="none" xmlns="http://www.w3.org/2000/svg">
<path d="M22.8359 23.6H5.21293C5.20827 23.5998 5.19746 23.5993 5.18138 23.5982C5.14768 23.5958 5.093 23.5905 5.02476 23.5791C4.88355 23.5556 4.71055 23.5104 4.54965 23.4299C4.39267 23.3514 4.26611 23.2494 4.17656 23.1151C4.09119 22.987 4 22.7713 4 22.3951C4 21.5319 4.46546 19.5577 5.96413 17.8093C7.42188 16.1086 9.89732 14.5756 14.0244 14.5756C18.1515 14.5756 20.6269 16.1086 22.0846 17.8093C23.5833 19.5577 24.0488 21.5319 24.0488 22.3951C24.0488 22.7713 23.9576 22.987 23.8722 23.1151C23.7827 23.2494 23.6561 23.3514 23.4991 23.4299C23.3382 23.5104 23.1652 23.5556 23.024 23.5791C22.9558 23.5905 22.9011 23.5958 22.8674 23.5982C22.8513 23.5993 22.8405 23.5998 22.8359 23.6Z" stroke="#F5F5F5" stroke-width="2"/>
<path d="M17.3496 9.91864C16.5895 10.6787 15.5586 11.1057 14.4838 11.1057C13.4089 11.1057 12.378 10.6787 11.618 9.91864C10.8579 9.15859 10.4309 8.12773 10.4309 7.05285C10.4309 5.97796 10.8579 4.94711 11.618 4.18705C12.378 3.427 13.4089 3 14.4838 3C15.5586 3 16.5895 3.427 17.3496 4.18705C18.1096 4.94711 18.5366 5.97796 18.5366 7.05285C18.5366 8.12773 18.1096 9.15859 17.3496 9.91864Z" stroke="#F5F5F5" stroke-width="2"/>
</svg>
