<svg width="20" height="20" viewBox="0 0 20 20" fill="none" xmlns="http://www.w3.org/2000/svg">
<path d="M13.7283 4.50664L15.4933 6.27081M14.8633 2.95248L10.0908 7.72498C9.84423 7.97123 9.67605 8.28496 9.60749 8.62664L9.16666 10.8333L11.3733 10.3916C11.715 10.3233 12.0283 10.1558 12.275 9.90914L17.0475 5.13664C17.1909 4.99323 17.3047 4.82297 17.3823 4.63559C17.4599 4.44821 17.4998 4.24738 17.4998 4.04456C17.4998 3.84174 17.4599 3.64091 17.3823 3.45353C17.3047 3.26615 17.1909 3.09589 17.0475 2.95248C16.9041 2.80906 16.7338 2.6953 16.5464 2.61769C16.3591 2.54007 16.1582 2.50012 15.9554 2.50012C15.7526 2.50012 15.5518 2.54007 15.3644 2.61769C15.177 2.6953 15.0067 2.80906 14.8633 2.95248V2.95248Z" stroke="#636363" stroke-width="1.66667" stroke-linecap="round" stroke-linejoin="round"/>
<path d="M15.8333 12.5V15C15.8333 15.442 15.6577 15.8659 15.3452 16.1785C15.0326 16.491 14.6087 16.6666 14.1667 16.6666H4.99999C4.55797 16.6666 4.13404 16.491 3.82148 16.1785C3.50892 15.8659 3.33333 15.442 3.33333 15V5.83329C3.33333 5.39127 3.50892 4.96734 3.82148 4.65478C4.13404 4.34222 4.55797 4.16663 4.99999 4.16663H7.49999" stroke="#636363" stroke-width="1.66667" stroke-linecap="round" stroke-linejoin="round"/>
</svg>
