<svg width="32" height="35" viewBox="0 0 32 35" fill="none" xmlns="http://www.w3.org/2000/svg">
<path d="M16.0633 3.95833L12.0892 7.91667H20.0058L16.0633 3.95833ZM3.33333 11.0833V31.6667H28.6667V11.0833H3.33333ZM16 0L23.9167 7.91667H28.6667C29.5065 7.91667 30.312 8.2503 30.9058 8.84416C31.4997 9.43803 31.8333 10.2435 31.8333 11.0833V31.6667C31.8333 32.5065 31.4997 33.312 30.9058 33.9058C30.312 34.4997 29.5065 34.8333 28.6667 34.8333H3.33333C2.49348 34.8333 1.68803 34.4997 1.09416 33.9058C0.500298 33.312 0.166668 32.5065 0.166668 31.6667V11.0833C0.166668 10.2435 0.500298 9.43803 1.09416 8.84416C1.68803 8.2503 2.49348 7.91667 3.33333 7.91667H8.08333L16 0ZM8.08333 28.5V22.1667H16V28.5H8.08333ZM19.1667 26.9167V15.8333H25.5V26.9167H19.1667ZM6.5 19V14.25H14.4167V19H6.5Z" fill="url(#paint0_linear_4_17)"/>
<defs>
<linearGradient id="paint0_linear_4_17" x1="16" y1="34.6956" x2="15.5366" y2="-9.73729e-07" gradientUnits="userSpaceOnUse">
<stop stop-color="#D9D9D9" stop-opacity="0.75"/>
<stop offset="0.940625" stop-color="#F5F5F5"/>
</linearGradient>
</defs>
</svg>
