<svg width="32" height="39" viewBox="0 0 32 39" fill="none" xmlns="http://www.w3.org/2000/svg">
<g filter="url(#filter0_d_167_939)">
<path d="M2 6.34483C2 5.19251 2.44697 4.08738 3.24258 3.27257C4.03819 2.45776 5.11726 2 6.24242 2H25.7576C26.3147 2 26.8664 2.11238 27.3811 2.33073C27.8958 2.54908 28.3635 2.86912 28.7574 3.27257C29.1514 3.67603 29.4639 4.155 29.6771 4.68213C29.8903 5.20927 30 5.77426 30 6.34483V31.1103C30 31.456 29.8659 31.7876 29.6272 32.032C29.3885 32.2765 29.0648 32.4138 28.7273 32.4138H4.54545C4.54545 32.8747 4.72424 33.3168 5.04249 33.6427C5.36073 33.9686 5.79236 34.1517 6.24242 34.1517H28.7273C29.0648 34.1517 29.3885 34.2891 29.6272 34.5335C29.8659 34.7779 30 35.1095 30 35.4552C30 35.8009 29.8659 36.1324 29.6272 36.3769C29.3885 36.6213 29.0648 36.7586 28.7273 36.7586H6.24242C5.11726 36.7586 4.03819 36.3009 3.24258 35.486C2.44697 34.6712 2 33.5661 2 32.4138V6.34483ZM16 12.4276C16.4501 12.4276 16.8817 12.2445 17.1999 11.9186C17.5182 11.5926 17.697 11.1506 17.697 10.6897C17.697 10.2287 17.5182 9.78668 17.1999 9.46075C16.8817 9.13483 16.4501 8.95172 16 8.95172C15.5499 8.95172 15.1183 9.13483 14.8001 9.46075C14.4818 9.78668 14.303 10.2287 14.303 10.6897C14.303 11.1506 14.4818 11.5926 14.8001 11.9186C15.1183 12.2445 15.5499 12.4276 16 12.4276ZM14.7273 15.469V24.1586C14.7273 24.5043 14.8614 24.8359 15.1 25.0803C15.3387 25.3247 15.6625 25.4621 16 25.4621C16.3375 25.4621 16.6613 25.3247 16.9 25.0803C17.1386 24.8359 17.2727 24.5043 17.2727 24.1586V15.469C17.2727 15.1233 17.1386 14.7917 16.9 14.5473C16.6613 14.3028 16.3375 14.1655 16 14.1655C15.6625 14.1655 15.3387 14.3028 15.1 14.5473C14.8614 14.7917 14.7273 15.1233 14.7273 15.469Z" fill="url(#paint0_linear_167_939)"/>
</g>
<defs>
<filter id="filter0_d_167_939" x="0" y="0" width="32" height="38.7587" filterUnits="userSpaceOnUse" color-interpolation-filters="sRGB">
<feFlood flood-opacity="0" result="BackgroundImageFix"/>
<feColorMatrix in="SourceAlpha" type="matrix" values="0 0 0 0 0 0 0 0 0 0 0 0 0 0 0 0 0 0 127 0" result="hardAlpha"/>
<feOffset/>
<feGaussianBlur stdDeviation="1"/>
<feComposite in2="hardAlpha" operator="out"/>
<feColorMatrix type="matrix" values="0 0 0 0 0 0 0 0 0 0 0 0 0 0 0 0 0 0 0.2 0"/>
<feBlend mode="normal" in2="BackgroundImageFix" result="effect1_dropShadow_167_939"/>
<feBlend mode="normal" in="SourceGraphic" in2="effect1_dropShadow_167_939" result="shape"/>
</filter>
<linearGradient id="paint0_linear_167_939" x1="10.4" y1="2" x2="19.6041" y2="38.156" gradientUnits="userSpaceOnUse">
<stop stop-color="#F5F5F5"/>
<stop offset="1" stop-color="#BEBEBE"/>
</linearGradient>
</defs>
</svg>
